<?xml version="1.0" encoding="UTF-8" standalone="no"?>
<!DOCTYPE svg PUBLIC "-//W3C//DTD SVG 1.1//EN"
 "http://www.w3.org/Graphics/SVG/1.1/DTD/svg11.dtd">
<!-- Generated by graphviz version 8.0.3 (20230416.2022)
 -->
<!-- Pages: 1 -->
<svg width="326pt" height="208pt"
 viewBox="0.00 0.00 326.07 208.00" xmlns="http://www.w3.org/2000/svg" xmlns:xlink="http://www.w3.org/1999/xlink">
<g id="graph0" class="graph" transform="scale(1 1) rotate(0) translate(4 204)">
<polygon fill="white" stroke="none" points="-4,4 -4,-204 322.07,-204 322.07,4 -4,4"/>
<!-- 2409220012688 -->
<g id="node1" class="node">
<title>2409220012688</title>
<polygon fill="none" stroke="black" points="23.59,-55 23.59,-91 111.59,-91 111.59,-55 23.59,-55"/>
<text text-anchor="middle" x="67.59" y="-69.3" font-family="Times New Roman,serif" font-size="14.00">data 10.0000</text>
</g>
<!-- 2409220012256+ -->
<g id="node6" class="node">
<title>2409220012256+</title>
<ellipse fill="none" stroke="black" cx="244.63" cy="-46" rx="73.39" ry="18"/>
<text text-anchor="middle" x="244.63" y="-42.3" font-family="Times New Roman,serif" font-size="14.00">2409220012256+</text>
</g>
<!-- 2409220012688&#45;&gt;2409220012256+ -->
<g id="edge4" class="edge">
<title>2409220012688&#45;&gt;2409220012256+</title>
<path fill="none" stroke="black" d="M111.41,-66.4C129.34,-63.63 150.7,-60.34 170.95,-57.21"/>
<polygon fill="black" stroke="black" points="171.4,-60.53 180.75,-55.55 170.33,-53.61 171.4,-60.53"/>
</g>
<!-- 2409220010960 -->
<g id="node2" class="node">
<title>2409220010960</title>
<ellipse fill="none" stroke="black" cx="67.59" cy="-182" rx="67.69" ry="18"/>
<text text-anchor="middle" x="67.59" y="-178.3" font-family="Times New Roman,serif" font-size="14.00">2409220010960</text>
</g>
<!-- 2409220011728* -->
<g id="node3" class="node">
<title>2409220011728*</title>
<ellipse fill="none" stroke="black" cx="244.63" cy="-155" rx="72.29" ry="18"/>
<text text-anchor="middle" x="244.63" y="-151.3" font-family="Times New Roman,serif" font-size="14.00">2409220011728*</text>
</g>
<!-- 2409220010960&#45;&gt;2409220011728* -->
<g id="edge1" class="edge">
<title>2409220010960&#45;&gt;2409220011728*</title>
<path fill="none" stroke="black" d="M126.88,-173.01C141.2,-170.8 156.71,-168.41 171.6,-166.11"/>
<polygon fill="black" stroke="black" points="171.95,-169.44 181.3,-164.46 170.89,-162.53 171.95,-169.44"/>
</g>
<!-- 2409220011488 -->
<g id="node4" class="node">
<title>2409220011488</title>
<ellipse fill="none" stroke="black" cx="67.59" cy="-128" rx="67.69" ry="18"/>
<text text-anchor="middle" x="67.59" y="-124.3" font-family="Times New Roman,serif" font-size="14.00">2409220011488</text>
</g>
<!-- 2409220011488&#45;&gt;2409220011728* -->
<g id="edge2" class="edge">
<title>2409220011488&#45;&gt;2409220011728*</title>
<path fill="none" stroke="black" d="M126.88,-136.99C141.2,-139.2 156.71,-141.59 171.6,-143.89"/>
<polygon fill="black" stroke="black" points="170.89,-147.47 181.3,-145.54 171.95,-140.56 170.89,-147.47"/>
</g>
<!-- 2409220011728 -->
<g id="node5" class="node">
<title>2409220011728</title>
<ellipse fill="none" stroke="black" cx="67.59" cy="-18" rx="67.69" ry="18"/>
<text text-anchor="middle" x="67.59" y="-14.3" font-family="Times New Roman,serif" font-size="14.00">2409220011728</text>
</g>
<!-- 2409220011728&#45;&gt;2409220012256+ -->
<g id="edge3" class="edge">
<title>2409220011728&#45;&gt;2409220012256+</title>
<path fill="none" stroke="black" d="M126.39,-27.25C140.82,-29.55 156.46,-32.06 171.48,-34.46"/>
<polygon fill="black" stroke="black" points="170.86,-38.06 181.29,-36.19 171.96,-31.15 170.86,-38.06"/>
</g>
</g>
</svg>
